# xmcd CD database file
#
# Track frame offsets:
#	183
#	15728
#	29125
#	38953
#	53525
#	66855
#	84120
#	103458
#	118095
#	132808
#	143155
#	159740
#
# Disc length: 2340 seconds
#
# Revision: 2
# Processed by: cddbd v1.4b41PL1 Copyright (c) Steve Scherf et al.
# Submitted via: Feurio! 1.50.2ß - http://www.feurio.com
#
DISCID=a509220c
DTITLE=Sex Pistols - Anarchy In The UK
DYEAR=1900
DGENRE=
TTITLE0=I Wanna Be Me
TTITLE1=Anarchy In The UK
TTITLE2=Seventeen
TTITLE3=New York
TTITLE4=EMI
TTITLE5=Submission
TTITLE6=Problems
TTITLE7=God Save The Queen
TTITLE8=Holidays In The Sun
TTITLE9=Pretty Vacant
TTITLE10=Belson Was A Gas
TTITLE11=Bodies
EXTD=
EXTT0=
EXTT1=
EXTT2=
EXTT3=
EXTT4=
EXTT5=
EXTT6=
EXTT7=
EXTT8=
EXTT9=
EXTT10=
EXTT11=
PLAYORDER=
